<?xml version="1.0" encoding="utf-8"?>
<!-- Generator: Adobe Illustrator 26.3.1, SVG Export Plug-In . SVG Version: 6.00 Build 0)  -->
<svg version="1.1" id="Layer_1" xmlns="http://www.w3.org/2000/svg" xmlns:xlink="http://www.w3.org/1999/xlink" x="0px" y="0px"
	 viewBox="0 0 661 670.1" style="enable-background:new 0 0 661 670.1;" xml:space="preserve">
<style type="text/css">
	.st0{fill:#607D85;}
	.st1{fill:#FDD600;}
	.st2{fill:#E88822;}
	.st3{fill:#FFFFFF;}
	.st4{fill:#B8947A;}
	.st5{fill:#452D23;}
	.st6{fill:none;stroke:#FFFFFF;stroke-width:15;stroke-miterlimit:10;}
	.st7{fill:#607D83;}
	.st8{fill:#7D1C22;}
	.st9{fill:none;stroke:#607D83;stroke-width:20;stroke-miterlimit:10;}
	.st10{fill:#8A292E;}
	.st11{fill:#FEFFFF;stroke:#423837;stroke-width:5;stroke-miterlimit:10;}
	.st12{fill:#423837;}
	.st13{fill:#423837;stroke:#423837;stroke-miterlimit:10;}
</style>
<path class="st0" d="M85.8,546.2c10.1,0,20.1,0,30.2,0c17.3,17.4,95.5,92.3,215.3,91.5c117.5-0.8,193.8-74.1,211.5-92l29.2,0
	c-14.4,17-101.5,116.3-242.6,116.6C187.8,662.6,100.2,563.1,85.8,546.2z"/>
<polygon class="st1" points="43.1,259.6 95.2,120.5 247.9,47.2 351.8,34.4 470.5,70.2 529.9,105.4 585.8,176.9 623,244.3 
	639.5,330.2 37.6,290.4 "/>
<polygon class="st2" points="64.3,169.8 186.7,204.5 319,225.2 319,215.6 235.4,168.5 "/>
<polygon class="st2" points="325.4,207.5 197.3,43.1 297.3,34.4 336.2,196.9 "/>
<polygon class="st2" points="350.6,199.3 388.3,38.2 465.7,64.6 463.7,72 362,206.1 "/>
<polygon class="st2" points="367.1,214.7 537.1,117.9 586.7,186.2 367.1,225.2 "/>
<circle class="st3" cx="344.6" cy="221.4" r="26.5"/>
<polygon class="st4" points="326.7,254.1 619.8,258.5 634.2,313.7 329.2,271.5 "/>
<path class="st5" d="M276.2,251.8c117,45.8,234,91.7,351,137.5l-2.2-92.9c-72.2-7-146.3-15.6-222.1-26.2c-29.8-4.1-59.2-8.5-88.3-13
	C301.8,255.4,289,253.6,276.2,251.8z"/>
<path d="M219.6,416.1c138.1-0.1,276.1-0.2,414.2-0.3l11.4-95l-6.8-3l-14.4,5.3c-67.7-8.7-140.1-21.1-216.1-38.6
	c-34.7-8-68.2-16.5-100.3-25.5c-5-2.2-14.1-5.4-25.5-4.9c-6.3,0.3-11.6,1.6-15.5,3c-15.3,30.4-30.5,68.8-40,114.5
	C223.3,387.2,221.1,402.1,219.6,416.1z"/>
<path class="st3" d="M271.3,408c-1.5-19.2-2.7-39-3.6-59.3c-1.3-30.1-1.5-61.4-1.2-89c2.4-0.1,4.7,0.1,7.1,0
	c0.3,21.5,1.1,45.6,2.1,68.2c1.3,27.6,3,54.3,5.2,80.2C277.8,408,274.6,408,271.3,408z"/>
<path class="st3" d="M292,260.5c59.9,21.7,123.4,42.9,190.3,63c49.9,15,98.5,28.3,145.7,40.3v-9.1c-40.4-10.5-81.4-21.7-122.8-33.4
	c-69.9-19.8-137.6-40.4-203-61.6L292,260.5z"/>
<path class="st5" d="M40.6,261.3l17.4-35l44-5.7l12.1,9.6l30.8-4l25.9-11.7c13,4.9,24,8.5,32.4,11.1c22.5,6.9,30.5,7.7,38,7.4
	c8.2-0.4,14.9-2.2,19.1-3.5c2.6,1.1,6.6,2.8,11.6,4.3c16.1,4.7,29.2,4.1,35.7,3.8c17.2-0.7,41.3-0.6,72.4-0.3c2.2,1.5,5.5,3.5,9.9,5
	c1.6,0.5,3.2,0.9,10.6,1.8c11.7,1.5,15,1.4,19.3,4c2.3,1.4,3.9,2.9,4.8,4l154.6,3.2c2.8-2.1,6.3-4.3,10.6-6.2
	c8.1-3.7,15.5-5,20.8-5.5l5.7,17.8L40.6,261.3L40.6,261.3z"/>
<path class="st5" d="M219.6,416.1c8.6-53.6,24.1-107.5,48.8-160.3c1.2-2.7,2.5-5.3,3.8-7.9l-14.6,9.1l-16.8-3.8l-37.4,40.1
	l-95.2,88.1v34.5L219.6,416.1z"/>
<path class="st4" d="M142,403.1H40.8l-8.5-62.4l8.3-79.4h216.9c-9.9,9-20,18.9-30.2,29.7c-22.4,23.6-40.7,47.1-55.6,68.8l-17.8,38
	L142,403.1z"/>
<circle class="st6" cx="330.6" cy="332.9" r="296.6"/>
<path class="st7" d="M53.3,169.8c-2.3-22.5,2.3-37.6,7.1-47.3c4.3-8.7,8.6-12.9,9.1-20.7c0.8-14-11.4-26.1-22.1-34.3
	c18.5-18.5,37-37,55.6-55.6c1.2,1.6,9.8,12.6,24.8,13.5c18.4,1.1,29.2-14.2,29.8-15c2.1,2.8,10.2,12.7,22.8,13.7
	c5,0.4,8.9-0.7,11.5-1.4c10.8-3.1,17.8-10,21.3-14c7.9,7.2,15.9,14.4,23.8,21.5c-40,22.6-70.9,43.4-92.5,59
	c-15.5,11.2-24.8,18.6-28,21.2C88.4,132.9,67.4,154.2,53.3,169.8z"/>
<rect x="34" y="403.1" class="st0" width="593.2" height="25.5"/>
<g>
	<path class="st8" d="M183.8,575.2v-19h9v2.2h-7.4v5.8h6.9v2.2h-6.9v6.5h7.7v2.2L183.8,575.2L183.8,575.2z"/>
	<path class="st8" d="M194.8,569.1l1.6-0.2c0.1,1,0.2,1.7,0.5,2.3s0.7,1.1,1.3,1.5s1.2,0.6,1.9,0.6c0.6,0,1.2-0.1,1.7-0.4
		c0.5-0.3,0.8-0.7,1.1-1.2c0.2-0.5,0.4-1,0.4-1.6s-0.1-1.1-0.3-1.6s-0.6-0.8-1.1-1.1c-0.3-0.2-1.1-0.5-2.2-0.9
		c-1.1-0.4-2-0.8-2.4-1.2c-0.6-0.5-1-1.1-1.3-1.8s-0.4-1.5-0.4-2.4c0-1,0.2-1.9,0.5-2.7c0.4-0.8,0.9-1.5,1.6-1.9
		c0.7-0.4,1.5-0.6,2.3-0.6c0.9,0,1.7,0.2,2.5,0.7c0.7,0.5,1.3,1.1,1.6,2c0.4,0.9,0.6,1.9,0.6,3l-1.6,0.2c-0.1-1.2-0.4-2.1-0.9-2.7
		c-0.5-0.6-1.2-0.9-2.2-0.9s-1.7,0.3-2.2,0.8c-0.5,0.6-0.7,1.2-0.7,2c0,0.7,0.2,1.2,0.5,1.7c0.3,0.4,1.2,0.9,2.5,1.4
		s2.3,0.9,2.8,1.2c0.7,0.5,1.3,1.2,1.6,1.9c0.3,0.8,0.5,1.7,0.5,2.7s-0.2,2-0.6,2.9c-0.4,0.9-0.9,1.6-1.6,2.1
		c-0.7,0.5-1.5,0.7-2.4,0.7c-1.1,0-2.1-0.3-2.8-0.8c-0.8-0.5-1.4-1.3-1.8-2.3S194.8,570.4,194.8,569.1z"/>
	<path class="st8" d="M210.2,575.2v-16.8h-4.1v-2.2h9.9v2.2h-4.1v16.8H210.2z"/>
	<path class="st8" d="M216,575.2v-2.7h1.7v2.7H216z"/>
</g>
<path class="st9" d="M630.7,419c7.2-26.5,11-54.3,11-83.1c0-173.9-139.9-314.9-312.5-314.9S16.7,161.9,16.7,335.9
	c0,28.8,3.8,56.6,11,83.1H630.7z"/>
<g>
	<g>
		<path class="st8" d="M266,570.3l-1.7,4.3h-4.7c0.3-0.7,6.8-17.4,7.2-18.2h6.2l7.5,18.2h-5l-1.8-4.3H266z M272.8,567.2
			c-1.5-3.7-2.5-6.3-3-8l0,0c-0.6,2-1.6,4.9-2.9,8H272.8z"/>
		<path class="st8" d="M288.2,567.1v7.5h-4.7v-18.2h9.6c4.4,0,7.6,1.7,7.6,4.9c0,2.5-1.7,3.7-3.7,4.3c2.3,0.7,3.2,2.1,3.2,4.4v0.5
			c0,1.6,0.1,3.1,0.3,4.2h-4.6c-0.3-0.8-0.4-2-0.4-4.2V570c0-2.1-1-2.8-4-2.8h-3.3V567.1z M288.2,564.1h3.6c2.3,0,4.1-0.5,4.1-2.5
			c0-1.7-1.6-2.3-3.5-2.3h-4.2L288.2,564.1L288.2,564.1z"/>
		<path class="st8" d="M309.5,556.4v18.2h-4.8v-18.2H309.5z"/>
		<path class="st8" d="M312.9,571.9l11.6-12.5h-11.1v-3h16.7v3l-11.4,12.2h12l-0.6,3.1h-17.3L312.9,571.9L312.9,571.9z"/>
		<path class="st8" d="M353.6,565.4c0,5.2-3.3,9.5-10.7,9.5c-7.2,0-10.3-4.3-10.3-9.5c0-4.5,3.2-9.2,10.7-9.2
			C350.4,556.1,353.6,560.5,353.6,565.4z M337.6,565.4c0,3.6,1.9,6.5,5.6,6.5c4.1,0,5.6-2.7,5.6-6.5c0-3.4-1.5-6.3-5.6-6.3
			C339.2,559.1,337.6,561.9,337.6,565.4z"/>
		<path class="st8" d="M357.8,574.6v-18.2h6.1c7,11.1,8.1,12.9,8.5,13.8h0.1c-0.2-2.2-0.3-5.1-0.3-8.1v-5.7h4.4v18.2h-5.9
			c-7.5-12.2-8.3-13.7-8.7-14.4l0,0c0.2,2.3,0.2,5.5,0.2,8.7v5.6h-4.4V574.6z"/>
		<path class="st8" d="M385.7,570.3l-1.7,4.3h-4.7c0.3-0.7,6.8-17.4,7.2-18.2h6.2l7.5,18.2h-5l-1.8-4.3H385.7z M392.5,567.2
			c-1.5-3.7-2.5-6.3-3-8l0,0c-0.6,2-1.6,4.9-2.9,8H392.5z"/>
	</g>
</g>
<g>
	<path class="st8" d="M437.7,574.3h-1.9v-14.2c-0.4,0.5-1,1-1.8,1.5c-0.7,0.5-1.4,0.9-1.9,1.1v-2.1c1-0.6,1.9-1.3,2.7-2.1
		s1.3-1.6,1.6-2.4h1.2v18.2H437.7z"/>
	<path class="st8" d="M445.2,564.5c-0.8-0.3-1.3-0.8-1.7-1.4c-0.4-0.6-0.6-1.4-0.6-2.2c0-1.3,0.4-2.4,1.2-3.3
		c0.8-0.9,1.8-1.3,3.1-1.3s2.4,0.5,3.2,1.4s1.2,2,1.2,3.4c0,0.8-0.2,1.6-0.5,2.2c-0.4,0.6-0.9,1.1-1.7,1.4c0.9,0.4,1.6,0.9,2.1,1.8
		c0.5,0.8,0.7,1.8,0.7,2.9c0,1.5-0.5,2.8-1.4,3.9c-0.9,1.1-2.1,1.6-3.6,1.6s-2.7-0.5-3.6-1.6c-0.9-1.1-1.4-2.4-1.4-4
		c0-1.2,0.2-2.2,0.7-3C443.6,565.3,444.3,564.8,445.2,564.5z M444.3,569.1c0,0.6,0.1,1.2,0.4,1.8c0.3,0.6,0.6,1.1,1.1,1.4
		c0.5,0.3,1,0.5,1.6,0.5c0.9,0,1.6-0.3,2.2-1c0.6-0.7,0.9-1.6,0.9-2.6c0-1.1-0.3-2-0.9-2.7c-0.6-0.7-1.3-1-2.2-1s-1.6,0.3-2.2,1
		C444.6,567.2,444.3,568,444.3,569.1z M444.9,560.7c0,0.9,0.2,1.6,0.7,2.1s1.1,0.8,1.8,0.8s1.3-0.3,1.8-0.8s0.7-1.2,0.7-2
		s-0.2-1.5-0.7-2.1s-1.1-0.8-1.8-0.8s-1.3,0.3-1.8,0.8C445.1,559.3,444.9,560,444.9,560.7z"/>
	<path class="st8" d="M457,564.5c-0.8-0.3-1.3-0.8-1.7-1.4c-0.4-0.6-0.6-1.4-0.6-2.2c0-1.3,0.4-2.4,1.2-3.3c0.8-0.9,1.8-1.3,3.1-1.3
		s2.4,0.5,3.2,1.4s1.2,2,1.2,3.4c0,0.8-0.2,1.6-0.5,2.2c-0.4,0.6-0.9,1.1-1.7,1.4c0.9,0.4,1.6,0.9,2.1,1.8c0.5,0.8,0.7,1.8,0.7,2.9
		c0,1.5-0.5,2.8-1.4,3.9c-0.9,1.1-2.1,1.6-3.6,1.6s-2.7-0.5-3.6-1.6c-0.9-1.1-1.4-2.4-1.4-4c0-1.2,0.2-2.2,0.7-3
		C455.3,565.3,456,564.8,457,564.5z M456,569.1c0,0.6,0.1,1.2,0.4,1.8c0.3,0.6,0.6,1.1,1.1,1.4c0.5,0.3,1,0.5,1.6,0.5
		c0.9,0,1.6-0.3,2.2-1c0.6-0.7,0.9-1.6,0.9-2.6c0-1.1-0.3-2-0.9-2.7c-0.6-0.7-1.3-1-2.2-1s-1.6,0.3-2.2,1
		C456.3,567.2,456,568,456,569.1z M456.6,560.7c0,0.9,0.2,1.6,0.7,2.1s1.1,0.8,1.8,0.8s1.3-0.3,1.8-0.8s0.7-1.2,0.7-2
		s-0.2-1.5-0.7-2.1s-1.1-0.8-1.8-0.8s-1.3,0.3-1.8,0.8C456.8,559.3,456.6,560,456.6,560.7z"/>
	<path class="st8" d="M475.6,572.2v2.1h-10c0-0.5,0.1-1,0.2-1.5c0.3-0.8,0.7-1.6,1.2-2.4c0.6-0.8,1.4-1.7,2.4-2.7
		c1.6-1.6,2.7-2.9,3.3-3.8c0.6-0.9,0.9-1.8,0.9-2.7s-0.3-1.6-0.8-2.2c-0.5-0.6-1.2-0.9-2.1-0.9c-0.9,0-1.6,0.3-2.1,1
		c-0.5,0.6-0.8,1.5-0.8,2.7l-1.9-0.2c0.1-1.7,0.6-3,1.5-3.9s2-1.3,3.4-1.3s2.6,0.5,3.4,1.4c0.8,1,1.3,2.2,1.3,3.6
		c0,0.7-0.1,1.4-0.4,2.1c-0.2,0.7-0.7,1.4-1.2,2.2c-0.6,0.8-1.5,1.8-2.9,3.2c-1.1,1.1-1.8,1.9-2.1,2.3c-0.3,0.4-0.6,0.8-0.8,1.2h7.5
		V572.2z"/>
</g>
<g>
	<path class="st10" d="M85.8,522.5c-5.7-10.5-11.3-21-17-31.5c2.7-2.9,7.2-8.6,9.9-17.1c2.8-8.9,2.2-16.6,1.6-20.6
		c-5.7,0-11.3,0-17,0c0.9,12-3.5,22.3-11.2,25.9c-1.6,0.8-4.1,1.5-7.4,1.4v-27.2H24.6v69.2h19.3v-27.9h8.8l13.6,27.9h19.5V522.5z"/>
	<rect x="116.1" y="453.4" class="st10" width="20.2" height="69.2"/>
	<polygon class="st10" points="170.7,522.5 170.7,453.4 178.6,453.4 213.2,487.5 213.2,453.4 232.5,453.4 232.5,522.5 222.5,522.5 
		189,487.9 189,522.5 	"/>
	<polygon class="st10" points="571.9,525.3 571.9,456.1 579.9,456.1 614.5,490.3 614.5,456.1 633.7,456.1 633.7,525.3 623.7,525.3 
		590.3,490.7 590.3,525.3 	"/>
	<path class="st10" d="M314.6,476.8c7.1,0,14.2,0,21.3,0c-5-13.3-16-23.1-29-25c-19-2.9-37.5,11.6-41.4,30.1
		c-2.8,13.3,2.2,27.8,13.2,36.6c13,10.3,32.9,11.5,46.3,0.3c9.9-8.3,14.4-21.9,11.9-35.3H300v14.4h16.5c-0.7,1.4-3.9,7.7-10.8,9.7
		c-8.4,2.5-17.3-2.8-21.3-9.9c-4.5-7.9-2.8-18.1,3.3-24.2c4.8-4.8,13.6-8.4,20.4-4.5C312.1,471.1,313.9,474.9,314.6,476.8z"/>
	<polygon class="st10" points="367,526.7 367,451.4 375.8,451.4 404.9,484.3 436.2,451.4 442.7,451.4 442.7,526.7 422.9,526.7 
		422.9,489.1 404.9,507.2 386,489.1 386,526.7 	"/>
	<path class="st10" d="M510.8,451.4h-7.2l-35.7,75.3h20.2l7-11.6h24l5.1,11.6h21.5L510.8,451.4z M497.9,499.7l8.8-18l8.8,18H497.9z"
		/>
</g>
<path class="st11" d="M79.2,68c4.7,7,10.9,18.5,11.5,33.1c1.3,28-19.2,39.5-14.9,64.3c0.2,1.4,4.5,23.7,21.2,32.5
	c12.5,6.6,37.9,8.6,53.4,9.8c0.8,0.1,3.1,0.2,5.7,1.5c2.4,1.2,4,2.8,4.9,4c5.7-2.3,14.6-5.5,25.7-8.6c27.1-7.6,36.6-5.5,46.3-14.6
	c10.3-9.7,11.7-23.6,12.2-28.2c0-0.2,0.1-0.6,0.1-1.1c1-11.1-2.4-19.7-6.1-28.4c-5.9-13.9-7.4-15.8-8.9-19.8
	c-3.4-9.3-4.3-24,8.1-47.3c-8.7-7.9-17.4-15.8-26.1-23.7c-4.3,2.4-14.1,6.9-27.2,6.7c-13.1-0.2-22.7-5-27-7.5
	c-3.9,2.5-11.8,6.8-22.7,7.7c-14.9,1.2-26-4.7-30-7.1C96.8,50.1,88,59.1,79.2,68z"/>
<path class="st12" d="M141.1,135.5c-11.8-5.3-23.9,1.5-25.5,2.4c1.5-2.9,4.9-8.5,11.6-12.8c9.6-6.1,19.3-5.3,22.3-5
	c-2.6-4.3-5.2-8.6-7.8-12.9c-3.6,0.4-21.7,2.8-34,18.7c-3.1,4-15,20.8-8.6,40c4,12.1,16.1,27.6,32,26.1c11-1.1,19.7-9.8,23.1-19
	C159.2,159.7,154.6,141.5,141.1,135.5z M143.2,166.6c-1.5,9.2-10.5,15.5-18.7,13.3c-6.6-1.7-11.2-8.5-11.4-15.7
	c-0.3-9,6.6-17.4,14.9-17.6C137.2,146.5,144.9,156.5,143.2,166.6z"/>
<path class="st12" d="M206.9,135.5c-11.8-5.3-23.9,1.5-25.5,2.4c1.5-2.9,4.9-8.5,11.6-12.8c9.6-6.1,19.3-5.3,22.3-5
	c-2.6-4.3-5.2-8.6-7.8-12.9c-3.6,0.4-21.7,2.8-34,18.7c-3.1,4-15,20.8-8.6,40c4,12.1,16.1,27.6,32,26.1c11-1.1,19.7-9.8,23.1-19
	C225,159.7,220.4,141.5,206.9,135.5z M209,166.6c-1.5,9.2-10.5,15.5-18.7,13.3c-6.6-1.7-11.2-8.5-11.4-15.7
	c-0.3-9,6.6-17.4,14.9-17.6C203,146.5,210.7,156.5,209,166.6z"/>
<g>
	<path class="st13" d="M105,85.6V57.9h10c2,0,3.5,0.2,4.6,0.7c1,0.5,1.9,1.4,2.5,2.6c0.6,1.3,0.9,2.7,0.9,4.2c0,2-0.5,3.6-1.6,5
		s-2.6,2.2-4.8,2.6c0.8,0.5,1.4,0.9,1.8,1.4c0.9,1,1.7,2.2,2.5,3.7l3.9,7.5H121l-3-5.8c-0.9-1.7-1.6-2.9-2.2-3.8
		c-0.6-0.9-1.1-1.5-1.5-1.9s-0.9-0.6-1.4-0.7c-0.3-0.1-0.9-0.1-1.7-0.1h-3.5v12.3L105,85.6L105,85.6z M108,70.2h6.4
		c1.4,0,2.4-0.2,3.2-0.5c0.8-0.3,1.4-0.9,1.8-1.7s0.6-1.6,0.6-2.5c0-1.3-0.4-2.4-1.2-3.2c-0.8-0.8-2-1.3-3.7-1.3h-7.2v9.2H108z"/>
	<path class="st13" d="M126.9,72.1c0-4.6,1-8.2,3-10.8c2-2.6,4.6-3.9,7.8-3.9c2.1,0,4,0.6,5.6,1.8c1.7,1.2,3,2.9,3.8,5.1
		c0.9,2.2,1.3,4.7,1.3,7.4c0,2.8-0.5,5.3-1.4,7.5s-2.2,3.9-3.9,5c-1.7,1.1-3.5,1.7-5.5,1.7c-2.1,0-4-0.6-5.7-1.9
		c-1.7-1.3-2.9-3-3.8-5.2C127.3,76.9,126.9,74.6,126.9,72.1z M130,72.2c0,3.3,0.7,6,2.2,7.9s3.3,2.9,5.5,2.9c2.3,0,4.1-1,5.6-2.9
		s2.2-4.7,2.2-8.3c0-2.3-0.3-4.2-0.9-5.9c-0.6-1.7-1.5-3-2.7-3.9s-2.5-1.4-4-1.4c-2.1,0-3.9,0.9-5.5,2.7C130.7,65,130,68,130,72.2z"
		/>
	<path class="st13" d="M167.2,57.9h3v16c0,2.8-0.3,5-0.8,6.6s-1.4,3-2.8,4c-1.3,1-3.1,1.5-5.3,1.5c-2.1,0-3.9-0.4-5.2-1.3
		c-1.3-0.9-2.3-2.2-2.9-3.9s-0.9-4-0.9-6.9v-16h3v16c0,2.4,0.2,4.2,0.5,5.3c0.4,1.1,1,2,1.9,2.6s2,0.9,3.3,0.9
		c2.2,0,3.8-0.6,4.7-1.8c0.9-1.2,1.4-3.6,1.4-7L167.2,57.9L167.2,57.9z"/>
	<path class="st13" d="M180.9,85.6V61.2h-7.5v-3.3h18v3.3h-7.5v24.4H180.9z"/>
	<path class="st13" d="M194.6,85.6V57.9H211v3.3h-13.4v8.5h12.5V73h-12.5v9.4h13.8v3.3h-16.8V85.6z"/>
</g>
<rect x="91.3" y="92" class="st12" width="136.9" height="7.8"/>
<polygon class="st12" points="154.8,208.6 154.8,384.5 142,403.1 175.7,403.1 175.7,208.6 163,212.3 "/>
<polygon class="st3" points="291.4,273.1 312.1,290.4 317.5,286.8 294.6,271.5 "/>
<polygon class="st3" points="325.4,300.3 330.6,296.4 365.4,318.8 353.3,323.2 "/>
<path class="st3" d="M369.6,334.5c0.1-0.6,12.6-4.3,12.6-4.3l32,21.7l-13.7,7.8L369.6,334.5z"/>
</svg>
